<?xml version="1.0" standalone="no"?>
<!DOCTYPE svg PUBLIC "-//W3C//DTD SVG 1.1//EN"
  "http://www.w3.org/Graphics/SVG/1.1/DTD/svg11.dtd">
<svg width="103mm" height="36.99999999999999mm" viewBox="-14 -27.999999999999993 103 36.99999999999999" xmlns="http://www.w3.org/2000/svg" version="1.1">
	<title>svgOutput</title>
	<desc>made with tinkercad</desc>
<path d="M 84.08399963378906 -16.899000167846676 L 84.52893829345703 -16.38400077819824 L 86.18599700927734 -14.46599960327148 L 87.53500366210938 -11.399000167846678 L 88 -7.999999999999998 L 87.53500366210938 -4.600999832153319 L 86.18599700927734 -1.5340000391006465 L 84.8606948852539 1.1102230246251565e-16 L 84.08399963378906 0.8989999890327453 L 81.43599700927734 2.461999893188476 L 78.5 2.999999999999999 L 75.56400299072266 2.461999893188476 L 72.91600036621094 0.8989999890327453 L 72.1393051147461 1.1102230246251565e-16 L 70.81400299072266 -1.5340000391006465 L 69.46499633789062 -4.600999832153319 L 69 -7.999999999999998 L 69.46499633789062 -11.399000167846678 L 70.81400299072266 -14.46599960327148 L 72.47106170654297 -16.38400077819824 L 72.91600036621094 -16.899000167846676 L 75.56400299072266 -18.461999893188473 L 78.5 -18.999999999999996 L 81.43599700927734 -18.461999893188473 L 84.08399963378906 -16.899000167846676 M -5 7.999999999999998 L -5.002999782562256 7.999999999999998 L -6.002999782562256 7.999999999999998 L -13 7.999999999999998 L -13 -26.999999999999993 L -6.002999782562256 -26.999999999999993 L -5.002999782562256 -26.999999999999993 L 53.00299835205078 -26.999999999999993 L 54.00299835205078 -26.999999999999993 L 63 -26.999999999999993 L 63 7.999999999999998 L 54.00299835205078 7.999999999999998 L 54 7.999999999999998 L 53.00299835205078 7.999999999999998 L -5 7.999999999999998 z" fill="none" stroke="rgb(255,0,0)" stroke-width="0.001mm" />
</svg>